# xmcd
#
# Track frame offsets:
#	150
#	33812
#	63655
#	100697
#	141202
#	172777
#	209647
#	256495
#	285085
#	306580
#	314370
#
# Disc length: 4379 seconds
#
# Revision: 1
# Processed by: cddbd v1.5.1PL0 Copyright (c) Steve Scherf et al.
# Submitted via: CDex 1.50Beta5
#
DISCID=9a11190b
DTITLE=ジャン・マルティノン/フランス国立放送局管弦楽団 - ドビュッシー管弦楽曲全集
DYEAR=1900
DGENRE=Classical
TTITLE0=夜想曲:I.雲
TTITLE1=夜想曲:II.祭
TTITLE2=夜想曲:III.海の精
TTITLE3=交響詩「海」:海上の夜明けから正午まで
TTITLE4=交響詩「海」:波の戯れ
TTITLE5=交響詩「海」:風と海の対話
TTITLE6=牧神の午後への前奏曲
TTITLE7=を主題とした「スコットランド風行進曲」
TTITLE8=英雄的子守歌
TTITLE9=劇附随音楽「リア王」:ファンファーレ
TTITLE10=劇附随音楽「リア王」:リア王の眠り
EXTD=
EXTT0=
EXTT1=
EXTT2=
EXTT3=
EXTT4=
EXTT5=
EXTT6=
EXTT7=
EXTT8=
EXTT9=
EXTT10=
PLAYORDER=
